<svg width="41" height="40" viewBox="0 0 41 40" fill="none" xmlns="http://www.w3.org/2000/svg">
<path d="M17.9699 11.3715C18.3417 11.7283 18.5275 12.1397 18.5275 12.6058C18.5275 13.0719 18.3417 13.4834 17.9699 13.8402L13.3399 18.2838L32.0327 18.2838C32.5183 18.2838 32.9395 18.455 33.2962 18.7973C33.6542 19.1409 33.8333 19.5458 33.8333 20.0119C33.8333 20.478 33.6542 20.8828 33.2962 21.2265C32.9395 21.5688 32.5183 21.74 32.0327 21.74L13.3399 21.74L18.0131 26.2251C18.3561 26.5542 18.5275 26.9519 18.5275 27.4179C18.5275 27.884 18.3417 28.2955 17.9699 28.6523C17.6269 28.9815 17.2126 29.1526 16.727 29.1658C16.2414 29.1803 15.8127 29.0091 15.4409 28.6523L7.72424 21.2462C7.52395 21.054 7.38128 20.8552 7.29622 20.6498C7.2098 20.4444 7.16659 20.2318 7.16659 20.0119C7.16659 19.792 7.2098 19.5794 7.29622 19.374C7.38128 19.1686 7.52395 18.9698 7.72424 18.7775L15.4841 11.33C15.8559 10.9732 16.2777 10.8086 16.7496 10.8363C17.2202 10.8639 17.6269 11.0423 17.9699 11.3715Z" fill="white"/>
</svg>
