<svg width="108" height="42" viewBox="0 0 108 42" fill="none" xmlns="http://www.w3.org/2000/svg">
<rect x="0.5" y="1.5" width="39" height="39" rx="19.5" stroke="#808080"/>
<path d="M12 29C11.45 29 10.9793 28.8043 10.588 28.413C10.196 28.021 10 27.55 10 27V15C10 14.45 10.196 13.9793 10.588 13.588C10.9793 13.196 11.45 13 12 13H24C24.55 13 25.021 13.196 25.413 13.588C25.8043 13.9793 26 14.45 26 15V19.5L29.15 16.35C29.3167 16.1833 29.5 16.1417 29.7 16.225C29.9 16.3083 30 16.4667 30 16.7V25.3C30 25.5333 29.9 25.6917 29.7 25.775C29.5 25.8583 29.3167 25.8167 29.15 25.65L26 22.5V27C26 27.55 25.8043 28.021 25.413 28.413C25.021 28.8043 24.55 29 24 29H12Z" fill="#808080"/>
<path d="M62 21L57 18.1132V23.8868L62 21ZM44 21.5H57.5V20.5H44V21.5Z" fill="#808080"/>
<rect x="66.5" y="0.5" width="41" height="41" rx="20.5" stroke="#808080"/>
<path fill-rule="evenodd" clip-rule="evenodd" d="M82.3125 8C81.7602 8 81.3125 8.44772 81.3125 9V23.3704C81.3125 23.9227 81.7602 24.3704 82.3125 24.3704H85.0398C85.5921 24.3704 86.0398 24.8181 86.0398 25.3704V28.2397C86.0398 28.7619 86.4631 29.1852 86.9852 29.1852C87.5074 29.1852 87.9307 29.6085 87.9307 30.1306V33.0546C87.9307 33.5767 88.354 34 88.8761 34C89.3983 34 89.8216 33.5767 89.8216 33.0546V30.1306C89.8216 29.6084 90.2449 29.1852 90.767 29.1852C91.2892 29.1852 91.7125 28.7619 91.7125 28.2397L91.7125 24.3704L91.7125 12.8148L91.7125 9C91.7125 8.44772 91.2648 8 90.7125 8H82.3125ZM86.675 10.6457L84.3656 14.6457H86.275V17.9052H84.3656L86.675 21.9052L88.9844 17.9052H87.075V14.6457H88.9844L86.675 10.6457Z" fill="#808080"/>
</svg>
