<svg width="20" height="20" viewBox="0 0 20 20" fill="none" xmlns="http://www.w3.org/2000/svg">
<path d="M13.5666 5.00284C13.3772 5.00284 13.1957 5.07805 13.0618 5.21193C12.9279 5.34581 12.8527 5.52739 12.8527 5.71672V9.01485L6.07083 5.09565C5.96209 5.03287 5.83873 4.99988 5.71317 5C5.58762 5.00012 5.46432 5.03336 5.35571 5.09635C5.24711 5.15934 5.15703 5.24987 5.09458 5.35879C5.03213 5.4677 4.99951 5.59117 5.00001 5.71672V14.2833C4.99951 14.4088 5.03213 14.5323 5.09458 14.6412C5.15703 14.7501 5.24711 14.8407 5.35571 14.9036C5.46432 14.9666 5.58762 14.9999 5.71317 15C5.83873 15.0001 5.96209 14.9671 6.07083 14.9044L12.8527 10.9923V14.2833C12.8527 14.4726 12.9279 14.6542 13.0618 14.7881C13.1957 14.9219 13.3772 14.9972 13.5666 14.9972C13.7559 14.9972 13.9375 14.9219 14.0714 14.7881C14.2052 14.6542 14.2804 14.4726 14.2804 14.2833V5.71672C14.2804 5.52739 14.2052 5.34581 14.0714 5.21193C13.9375 5.07805 13.7559 5.00284 13.5666 5.00284Z" fill="#1E40AF"/>
</svg>
