<svg width="108" height="42" viewBox="0 0 108 42" fill="none" xmlns="http://www.w3.org/2000/svg">
<rect x="0.5" y="0.5" width="41" height="41" rx="20.5" stroke="#808080"/>
<path fill-rule="evenodd" clip-rule="evenodd" d="M16.3125 8C15.7602 8 15.3125 8.44772 15.3125 9V23.3704C15.3125 23.9227 15.7602 24.3704 16.3125 24.3704H19.0398C19.5921 24.3704 20.0398 24.8181 20.0398 25.3704V28.2397C20.0398 28.7619 20.4631 29.1852 20.9852 29.1852C21.5074 29.1852 21.9307 29.6085 21.9307 30.1306V33.0546C21.9307 33.5767 22.354 34 22.8761 34C23.3983 34 23.8216 33.5767 23.8216 33.0546V30.1306C23.8216 29.6084 24.2449 29.1852 24.767 29.1852C25.2892 29.1852 25.7125 28.7619 25.7125 28.2397L25.7125 24.3704L25.7125 12.8148L25.7125 9C25.7125 8.44772 25.2648 8 24.7125 8H16.3125ZM20.675 10.6457L18.3656 14.6457H20.275V17.9052H18.3656L20.675 21.9052L22.9844 17.9052H21.075V14.6457H22.9844L20.675 10.6457Z" fill="#808080"/>
<path d="M64 21L59 18.1132V23.8868L64 21ZM46 21.5H59.5V20.5H46V21.5Z" fill="#808080"/>
<rect x="68.5" y="1.5" width="39" height="39" rx="19.5" stroke="#808080"/>
<path d="M80 29C79.45 29 78.9793 28.8043 78.588 28.413C78.196 28.021 78 27.55 78 27V15C78 14.45 78.196 13.9793 78.588 13.588C78.9793 13.196 79.45 13 80 13H92C92.55 13 93.021 13.196 93.413 13.588C93.8043 13.9793 94 14.45 94 15V19.5L97.15 16.35C97.3167 16.1833 97.5 16.1417 97.7 16.225C97.9 16.3083 98 16.4667 98 16.7V25.3C98 25.5333 97.9 25.6917 97.7 25.775C97.5 25.8583 97.3167 25.8167 97.15 25.65L94 22.5V27C94 27.55 93.8043 28.021 93.413 28.413C93.021 28.8043 92.55 29 92 29H80Z" fill="#808080"/>
</svg>
