<svg width="18" height="14" viewBox="0 0 18 14" fill="none" xmlns="http://www.w3.org/2000/svg">
<path d="M2.33329 13.6667C1.87496 13.6667 1.48274 13.5036 1.15663 13.1775C0.829959 12.8508 0.666626 12.4583 0.666626 12V2C0.666626 1.54167 0.829959 1.14944 1.15663 0.823334C1.48274 0.496667 1.87496 0.333334 2.33329 0.333334H12.3333C12.7916 0.333334 13.1841 0.496667 13.5108 0.823334C13.8369 1.14944 14 1.54167 14 2V5.75L16.625 3.125C16.7638 2.98611 16.9166 2.95139 17.0833 3.02083C17.25 3.09028 17.3333 3.22222 17.3333 3.41667V10.5833C17.3333 10.7778 17.25 10.9097 17.0833 10.9792C16.9166 11.0486 16.7638 11.0139 16.625 10.875L14 8.25V12C14 12.4583 13.8369 12.8508 13.5108 13.1775C13.1841 13.5036 12.7916 13.6667 12.3333 13.6667H2.33329ZM2.33329 12H12.3333V2H2.33329V12Z" fill="#1E40AF"/>
</svg>
