<svg width="80" height="80" viewBox="0 0 80 80" fill="none" xmlns="http://www.w3.org/2000/svg">
<path d="M70.5 55.5L60 45V50.5833L53.3333 43.9167V20H29.4167L22.75 13.3333H53.3333C55.1667 13.3333 56.7367 13.9867 58.0433 15.2933C59.3478 16.5978 60 18.1667 60 20V35L70.5 24.5C71.0556 23.9444 71.6667 23.8056 72.3333 24.0833C73 24.3611 73.3333 24.8889 73.3333 25.6667V54.3333C73.3333 55.1111 73 55.6389 72.3333 55.9167C71.6667 56.1944 71.0556 56.0556 70.5 55.5ZM66.1667 75.5L4.41667 13.75C3.80556 13.1389 3.5 12.3889 3.5 11.5C3.5 10.6111 3.83333 9.83333 4.5 9.16667C5.11111 8.55556 5.88889 8.25 6.83333 8.25C7.77778 8.25 8.55556 8.55556 9.16667 9.16667L70.9167 70.9167C71.5278 71.5278 71.8333 72.2778 71.8333 73.1667C71.8333 74.0556 71.5 74.8333 70.8333 75.5C70.2222 76.1111 69.4444 76.4167 68.5 76.4167C67.5556 76.4167 66.7778 76.1111 66.1667 75.5ZM13.3333 13.3333L20 20H13.3333V60H53.3333V53.3333L60 60C60 61.8333 59.3478 63.4033 58.0433 64.71C56.7367 66.0144 55.1667 66.6667 53.3333 66.6667H13.3333C11.5 66.6667 9.93111 66.0144 8.62667 64.71C7.32 63.4033 6.66667 61.8333 6.66667 60V20C6.66667 18.1667 7.32 16.5978 8.62667 15.2933C9.93111 13.9867 11.5 13.3333 13.3333 13.3333Z" fill="white"/>
</svg>
