<svg width="20" height="20" viewBox="0 0 20 20" fill="none" xmlns="http://www.w3.org/2000/svg">
<path d="M3.33329 16.6667C2.87496 16.6667 2.48274 16.5036 2.15663 16.1775C1.82996 15.8508 1.66663 15.4583 1.66663 15V5C1.66663 4.54167 1.82996 4.14944 2.15663 3.82333C2.48274 3.49667 2.87496 3.33333 3.33329 3.33333H13.3333C13.7916 3.33333 14.1841 3.49667 14.5108 3.82333C14.8369 4.14944 15 4.54167 15 5V8.75L17.625 6.125C17.7638 5.98611 17.9166 5.95139 18.0833 6.02083C18.25 6.09028 18.3333 6.22222 18.3333 6.41667V13.5833C18.3333 13.7778 18.25 13.9097 18.0833 13.9792C17.9166 14.0486 17.7638 14.0139 17.625 13.875L15 11.25V15C15 15.4583 14.8369 15.8508 14.5108 16.1775C14.1841 16.5036 13.7916 16.6667 13.3333 16.6667H3.33329ZM3.33329 15H13.3333V5H3.33329V15Z" fill="#1E40AF"/>
</svg>
