<svg width="20" height="20" viewBox="0 0 20 20" fill="none" xmlns="http://www.w3.org/2000/svg">
<path d="M17.625 13.875L15 11.25V12.6458L13.3333 10.9792V5H7.35417L5.6875 3.33333H13.3333C13.7917 3.33333 14.1842 3.49667 14.5108 3.82333C14.8369 4.14944 15 4.54167 15 5V8.75L17.625 6.125C17.7639 5.98611 17.9167 5.95139 18.0833 6.02083C18.25 6.09028 18.3333 6.22222 18.3333 6.41667V13.5833C18.3333 13.7778 18.25 13.9097 18.0833 13.9792C17.9167 14.0486 17.7639 14.0139 17.625 13.875ZM16.5417 18.875L1.10417 3.4375C0.951389 3.28472 0.875 3.09722 0.875 2.875C0.875 2.65278 0.958333 2.45833 1.125 2.29167C1.27778 2.13889 1.47222 2.0625 1.70833 2.0625C1.94444 2.0625 2.13889 2.13889 2.29167 2.29167L17.7292 17.7292C17.8819 17.8819 17.9583 18.0694 17.9583 18.2917C17.9583 18.5139 17.875 18.7083 17.7083 18.875C17.5556 19.0278 17.3611 19.1042 17.125 19.1042C16.8889 19.1042 16.6944 19.0278 16.5417 18.875ZM3.33333 3.33333L5 5H3.33333V15H13.3333V13.3333L15 15C15 15.4583 14.8369 15.8508 14.5108 16.1775C14.1842 16.5036 13.7917 16.6667 13.3333 16.6667H3.33333C2.875 16.6667 2.48278 16.5036 2.15667 16.1775C1.83 15.8508 1.66667 15.4583 1.66667 15V5C1.66667 4.54167 1.83 4.14944 2.15667 3.82333C2.48278 3.49667 2.875 3.33333 3.33333 3.33333Z" fill="#1E40AF"/>
</svg>
